<?xml version="1.0" encoding="UTF-8"?>
<svg xmlns="http://www.w3.org/2000/svg" id="Outline" viewBox="0 0 512 512" width="512" height="512"><path d="M488,200H456.357a206.571,206.571,0,0,0-20.51-48.532l25.81-25.811a8,8,0,0,0,0-11.314l-64-64a8,8,0,0,0-11.314,0l-25.811,25.81A206.571,206.571,0,0,0,312,55.643V24a8,8,0,0,0-8-8H208a8,8,0,0,0-8,8V55.643a206.571,206.571,0,0,0-48.532,20.51l-25.811-25.81a8,8,0,0,0-11.314,0l-64,64a8,8,0,0,0,0,11.314l25.81,25.811A206.571,206.571,0,0,0,55.643,200H24a8,8,0,0,0-8,8v96a8,8,0,0,0,8,8H55.643a206.571,206.571,0,0,0,20.51,48.532l-25.81,25.811a8,8,0,0,0,0,11.314l64,64a8,8,0,0,0,11.314,0l25.811-25.81A206.571,206.571,0,0,0,200,456.357V488a8,8,0,0,0,8,8h96a8,8,0,0,0,8-8V456.357a206.571,206.571,0,0,0,48.532-20.51l25.811,25.81a8,8,0,0,0,11.314,0l64-64a8,8,0,0,0,0-11.314l-25.81-25.811A206.571,206.571,0,0,0,456.357,312H488a8,8,0,0,0,8-8V208A8,8,0,0,0,488,200Zm-8,96H450.188a8,8,0,0,0-7.768,6.086,190.669,190.669,0,0,1-23.443,55.44,8,8,0,0,0,1.128,9.894L444.686,392,392,444.686l-24.58-24.581a8,8,0,0,0-9.894-1.128,190.669,190.669,0,0,1-55.44,23.443A8,8,0,0,0,296,450.188V480H216V450.188a8,8,0,0,0-6.086-7.768,190.669,190.669,0,0,1-55.44-23.443,8,8,0,0,0-9.894,1.128L120,444.686,67.314,392,91.9,367.42a8,8,0,0,0,1.128-9.894,190.669,190.669,0,0,1-23.443-55.44A8,8,0,0,0,61.812,296H32V216H61.812a8,8,0,0,0,7.768-6.086,190.669,190.669,0,0,1,23.443-55.44A8,8,0,0,0,91.9,144.58L67.314,120,120,67.314,144.58,91.9a8.007,8.007,0,0,0,9.894,1.128,190.669,190.669,0,0,1,55.44-23.443A8,8,0,0,0,216,61.812V32h80V61.812a8,8,0,0,0,6.086,7.768,190.669,190.669,0,0,1,55.44,23.443A8,8,0,0,0,367.42,91.9L392,67.314,444.686,120l-24.581,24.58a8,8,0,0,0-1.128,9.894,190.669,190.669,0,0,1,23.443,55.44A8,8,0,0,0,450.188,216H480Z"/><path d="M256,80C158.953,80,80,158.953,80,256s78.953,176,176,176,176-78.953,176-176S353.047,80,256,80Zm0,336c-88.225,0-160-71.775-160-160S167.775,96,256,96s160,71.775,160,160S344.225,416,256,416Z"/><path d="M256,112c-79.4,0-144,64.6-144,144s64.6,144,144,144,144-64.6,144-144S335.4,112,256,112Zm43.315,48,1.857-1.857a20.967,20.967,0,0,1,29.656,0l23.029,23.029a20.967,20.967,0,0,1,0,29.656L352,212.685ZM177.805,317.119,194.881,334.2l-23.48,6.4Zm34.855,12.227L182.654,299.34l4.592-16.837a56.1,56.1,0,0,1,9.169-18.774l51.855,51.856a56.081,56.081,0,0,1-18.773,9.169ZM227.315,272,308,191.314,320.686,204,240,284.685Zm69.371-92L216,260.685,207.315,252,288,171.314ZM260,304.685,251.315,296,332,215.314,340.686,224ZM256,128a127.3,127.3,0,0,1,48.87,9.7,36.793,36.793,0,0,0-15.013,9.124l-99.5,99.5a72.134,72.134,0,0,0-18.551,31.969l-15.716,57.626A127.927,127.927,0,0,1,256,128Zm0,256a127.378,127.378,0,0,1-79.919-28.094l57.627-15.716a72.136,72.136,0,0,0,31.968-18.551l99.5-99.5A36.807,36.807,0,0,0,374.3,207.13,127.985,127.985,0,0,1,256,384Z"/></svg>
